<svg width="500px" height="500px" viewBox="0 0 1000 1000"
 xmlns="http://www.w3.org/2000/svg" version="1.1" xmlns:xlink="http://www.w3.org/1999/xlink">

 <title>svg ifs Fraktal</title>
 <desc> Beispiel IFS-Fraktal mit SVG - Iterierte Funktionen-Systeme </desc>

<g transform="translate(500,500)" stroke-width="125" stroke="#ff2200" fill="#0022aa">
 <desc> Nullpunkt zentrieren. Ein einfaches Quadrat bildet die Grundform. </desc>

 <rect id="l1" x="-200" y="-200" width="400" height="400" stroke-opacity="0.8"
 fill-opacity="0.5" />
 <g id="l2">
 <desc> Durch Transformation und use-Tag beginnt hier die Iteration ... </desc>
 <use xlink:href="#l1" transform="translate(100,280) scale(0.41) rotate(30)" />
 <use xlink:href="#l1" transform="translate(-280,100) scale(0.41) rotate(30)"/>
 <use xlink:href="#l1" transform="translate(-100,-280) scale(0.41) rotate(30)" />
 <use xlink:href="#l1" transform="translate(280,-100) scale(0.41) rotate(30)"/>
 </g>
 <g id="l3">
 <use xlink:href="#l2" transform="translate(100,280) scale(0.41) rotate(30)" />
 <use xlink:href="#l2" transform="translate(-280,100) scale(0.41) rotate(30)"/>
 <use xlink:href="#l2" transform="translate(-100,-280) scale(0.41) rotate(30)" />
 <use xlink:href="#l2" transform="translate(280,-100) scale(0.41) rotate(30)"/>
 </g>
 <g id="l4">
 <use xlink:href="#l3" transform="translate(100,280) scale(0.41) rotate(30)" />
 <use xlink:href="#l3" transform="translate(-280,100) scale(0.41) rotate(30)"/>
 <use xlink:href="#l3" transform="translate(-100,-280) scale(0.41) rotate(30)" />
 <use xlink:href="#l3" transform="translate(280,-100) scale(0.41) rotate(30)"/>
 </g>
 <g id="l5">
 <use xlink:href="#l4" transform="translate(100,280) scale(0.41) rotate(30)" />
 <use xlink:href="#l4" transform="translate(-280,100) scale(0.41) rotate(30)"/>
 <use xlink:href="#l4" transform="translate(-100,-280) scale(0.41) rotate(30)" />
 <use xlink:href="#l4" transform="translate(280,-100) scale(0.41) rotate(30)"/>
 </g>
 <g id="l6">
 <use xlink:href="#l5" transform="translate(100,280) scale(0.41) rotate(30)" />
 <use xlink:href="#l5" transform="translate(-280,100) scale(0.41) rotate(30)"/>
 <use xlink:href="#l5" transform="translate(-100,-280) scale(0.41) rotate(30)" />
 <use xlink:href="#l5" transform="translate(280,-100) scale(0.41) rotate(30)"/>
 </g>
 <g id="l7">
 <use xlink:href="#l6" transform="translate(100,280) scale(0.41) rotate(30)" />
 <use xlink:href="#l6" transform="translate(-280,100) scale(0.41) rotate(30)"/>
 <use xlink:href="#l6" transform="translate(-100,-280) scale(0.41) rotate(30)" />
 <use xlink:href="#l6" transform="translate(280,-100) scale(0.41) rotate(30)"/>
 </g>
</g>
</svg>