<svg id="Ebene_1" data-name="Ebene 1" xmlns="http://www.w3.org/2000/svg" viewBox="0 0 594 594"><title>discord</title><path d="M351.78,122.42c2.48-7.39,4.69-14.5,7.27-21.46a11.79,11.79,0,0,1,12.67-7.72c31.06,3.21,61.1,10.42,89.71,23.12a170.15,170.15,0,0,1,39.06,23.55c7.22,5.91,11.63,14.11,15.8,22.3,15.64,30.72,26.82,63.13,36.27,96.18A682,682,0,0,1,572,349c3.48,24.2,5.73,48.52,5.43,73a17.88,17.88,0,0,1-2.48,8.37c-10.4,17.84-25.27,31.28-42.69,42-31,19-64.87,29.89-100.74,34.94l-.32,0c-14.57,1.34-15.91,1.72-24.54-10.74-7.58-11-15.58-32.78-23.32-43.63-1.13-1.59-2.12-2.12-4.18-1.65a370.76,370.76,0,0,1-93,8.86,353.39,353.39,0,0,1-70.64-8.77c-2.17-.51-3.43,10.92-4.77,12.8-8.78,12.34-17.77,24.52-26.5,36.9-3.61,5.12-8.1,7.38-14.42,6.86-22.27-1.83-43.7-7.3-64.62-14.84-20-7.23-39.08-16.49-56.07-29.55C36.8,454.05,26.19,443,18.57,429.43a16.19,16.19,0,0,1-2-7.56,498,498,0,0,1,4.13-62.21,668.33,668.33,0,0,1,17.48-89C47.91,234,59.73,198.1,76.85,164.17c3.57-7.09,7.57-14.34,13-20,5.9-6.24,13.27-11.35,20.63-15.93,26.44-16.43,55.65-25.58,86-31.24,8.16-1.52,16.44-2.46,24.67-3.57,6.6-.89,11.66,1.78,14,8,2.32,6.06,4.15,12.31,5.9,18.56.6,2.16,1.41,2.67,3.53,2.33,22.28-3.55,44.68-5.64,67.24-4.07,12.43.86,24.8,2.59,37.2,3.93Zm55.11,319.16a6.44,6.44,0,0,0,.53,1.24c6.2,8.41,12.38,30.29,18.69,38.62a3.69,3.69,0,0,0,2.93,1c30.15-3.86,58.7-12.68,85-28.13,14.77-8.68,27.85-19.36,37.3-33.91a8.89,8.89,0,0,0,1.31-4.71c-.51-33.7-4.92-67-11.55-100a674,674,0,0,0-20.79-78.78c-7-21.05-14.37-42-25-61.53-5.09-9.4-10.6-18.2-20.2-24.17a198,198,0,0,0-57.52-24.18c-11.78-2.9-23.8-4.81-35.73-7-1-.19-2.84.21-3.21.9-1,1.82-1.33,34.5-2,36.63.88.3-.49-.15,0,0,12.83,3.9,27.65,8,40.32,12.41,16.37,5.65,31.65,13.72,46.51,22.58,6.21,3.7,8.23,11.12,4.55,17.12s-10.85,7.49-17,3.78c-4.48-2.69-8.92-5.46-13.55-7.86-40.41-20.92-83.81-30.27-128.88-32.6-30.9-1.6-61.3,2.58-91.28,10-26.34,6.5-51.48,16-74.5,30.59a12.16,12.16,0,1,1-12.64-20.77A269.06,269.06,0,0,1,188.11,166c9.52-3,19.16-5.69,29-8.6-.26-1.09-.67-32.84-.81-34.08-.37-3.22-2.11-3.91-5.09-3.32-5.12,1-10.32,1.61-15.45,2.59-24.21,4.65-47.62,11.71-69.1,24.11-7.15,4.13-14.74,7.93-19.62,15-2.65,3.86-5.12,7.87-7.38,12-12.58,22.93-21,47.54-28.83,72.37-11.76,37.29-20.51,75.3-25.2,114.12-2.23,18.4-3,37-4.23,55.48A9.28,9.28,0,0,0,43,421,91.11,91.11,0,0,0,62.48,442c29.49,23.53,64,34.54,100.61,40.39,3.1.49,4.92-.4,6.53-3,1.86-3,4.14-5.69,6.23-8.52,3.84-5.2,7.67-23.86,11.65-29.26l-2.47-1c-11.55-4.67-23.27-9-34.61-14.11a172.92,172.92,0,0,1-37.8-23.2,12.11,12.11,0,0,1-2-17.37c4.53-5.35,11.94-5.69,17.79-1.43A234.48,234.48,0,0,0,149.92,399a228.26,228.26,0,0,0,67.81,25.56c14.91,3.06,30,5.85,45.11,7.14A417.22,417.22,0,0,0,314,432.92c15.82-.6,31.6-3,47.33-5a85.94,85.94,0,0,0,21.23-5.44c7-2.83,14.84-3.66,22.08-6.07,22.18-7.41,43.14-17.25,61.49-32.07a11.86,11.86,0,0,1,3.31-1.87,12.14,12.14,0,0,1,15.08,5.6c3,5.48,1.54,11.82-3.75,15.94-16.46,12.8-34.73,22.4-54,30.16C420.22,436.77,413.59,439.09,406.89,441.58Z" stroke="#000" stroke-linecap="square" stroke-width="16"/><path d="M372.59,373.31c-17.46-.59-32.65-11-43-29.06-13.61-23.76-10-55.53,8.53-75.67,22.67-24.69,60-22.47,80.38,4.78,18.94,25.28,16.54,62.11-5.71,84.51C402.83,367.9,390.71,373.3,372.59,373.31Zm34.22-59.7c-.09-8.58-1.66-15.46-5.27-21.83-11-19.46-34.7-21.44-47.86-4-11.13,14.75-10.36,37.38,1.74,51.3,10.52,12.1,27.4,13.2,39.27,2.44C403.3,333.71,406.58,323.61,406.81,313.61Z" stroke="#000" stroke-linecap="square" stroke-width="5"/><path d="M162.88,309.58c.54-17.81,7.76-35.29,24.4-47.84,20.63-15.55,47.74-13.45,66.33,4.52,24.26,23.45,25.45,64.79,2.58,89.64-24.13,26.21-64.11,22.29-83.12-8.13C166.28,336.91,162.92,325.08,162.88,309.58Zm85.31,7.63c.09-14.51-2.89-23.29-8.74-30.52-11-13.55-28.83-14.58-41.22-2.38-13.67,13.46-14.7,39.44-2.12,53.92,12.13,14,30.74,14.33,42.63.72C245.32,331.4,248.13,322.4,248.18,317.21Z" stroke="#000" stroke-linecap="square" stroke-width="5"/></svg>