<svg id="Ebene_1" data-name="Ebene 1" xmlns="http://www.w3.org/2000/svg" viewBox="0 0 594 594"><title>instagram</title><path d="M64,373.74Q64,297,64,220.26a30.91,30.91,0,0,0,.74-4.36c.54-18,1.35-36,5.76-53.58,10-39.68,33-68.55,70.81-84.91,20.52-8.87,42.33-11.45,64.42-12.36,4.85-.2,9.68-.69,14.52-1.05H373.74a30.92,30.92,0,0,0,4.36.74c18,.54,36,1.35,53.58,5.76,39.68,10,68.55,33,84.91,70.81,8.87,20.52,11.45,42.33,12.35,64.42.2,4.85.69,9.68,1.05,14.52V373.74a30.89,30.89,0,0,0-.74,4.36c-.53,18-1.35,36-5.76,53.57-10,39.68-33,68.55-70.81,84.91-20.52,8.87-42.33,11.45-64.42,12.35-4.85.2-9.68.69-14.52,1.05H220.26a30.89,30.89,0,0,0-4.36-.74c-18-.53-36-1.35-53.57-5.76-39.68-10-68.55-33-84.91-70.81C68.53,432.17,66,410.36,65.05,388.26,64.85,383.42,64.36,378.58,64,373.74ZM105.66,297h.72c0,19.41-.38,38.83.11,58.22.46,18.3,1.14,36.64,3,54.83,1.8,17.56,8,33.71,19.93,47.32,16.41,18.72,38,26.6,61.82,28.06,27.49,1.68,55.07,2.08,82.62,2.42q40.66.5,81.33-.33c18.3-.37,36.64-1.14,54.83-3,17.56-1.8,33.72-8,47.32-19.94,18.72-16.41,26.6-38,28.06-61.82,1.68-27.49,2.08-55.07,2.42-82.62q.5-40.66-.33-81.33c-.37-18.3-1.14-36.64-3-54.83-1.8-17.56-8-33.71-19.93-47.32-16.41-18.72-38-26.6-61.82-28.06-27.49-1.68-55.07-2.08-82.62-2.42-27.11-.33-54.23-.34-81.33.36-20.12.52-40.45.91-60.27,4-33.87,5.3-56.82,24.9-65.93,58.52a153.45,153.45,0,0,0-5,34.16C106.49,234.44,106.26,265.71,105.66,297Z"/><path d="M297.23,167.49a129.42,129.42,0,0,1,129.28,130c-.14,71.36-58.19,129.09-129.73,129a129.42,129.42,0,0,1-129.28-130C167.64,225.16,225.7,167.41,297.23,167.49Zm-.09,45.67c-45.91,0-83.92,37.49-84,82.82,0,46.76,37.15,84.81,82.95,84.85,46.91,0,84.71-37.25,84.72-83.57S343.34,213.17,297.14,213.17Z"/><path d="M461.84,162.63a30.4,30.4,0,1,1-30.38-30.47A30.42,30.42,0,0,1,461.84,162.63Z"/></svg>